<?xml version="1.0" encoding="UTF-8"?>
<svg xmlns="http://www.w3.org/2000/svg" width="720" height="400" viewBox="0 0 720 400">
<rect width="100%" height="100%" fill="#121214" />
<line x1="0" y1="0" x2="0" y2="400" stroke="#282830" stroke-width="1" />
<line x1="20" y1="0" x2="20" y2="400" stroke="#282830" stroke-width="1" />
<line x1="40" y1="0" x2="40" y2="400" stroke="#282830" stroke-width="1" />
<line x1="60" y1="0" x2="60" y2="400" stroke="#282830" stroke-width="1" />
<line x1="80" y1="0" x2="80" y2="400" stroke="#282830" stroke-width="1" />
<line x1="100" y1="0" x2="100" y2="400" stroke="#282830" stroke-width="1" />
<line x1="120" y1="0" x2="120" y2="400" stroke="#282830" stroke-width="1" />
<line x1="140" y1="0" x2="140" y2="400" stroke="#282830" stroke-width="1" />
<line x1="160" y1="0" x2="160" y2="400" stroke="#282830" stroke-width="1" />
<line x1="180" y1="0" x2="180" y2="400" stroke="#282830" stroke-width="1" />
<line x1="200" y1="0" x2="200" y2="400" stroke="#282830" stroke-width="1" />
<line x1="220" y1="0" x2="220" y2="400" stroke="#282830" stroke-width="1" />
<line x1="240" y1="0" x2="240" y2="400" stroke="#282830" stroke-width="1" />
<line x1="260" y1="0" x2="260" y2="400" stroke="#282830" stroke-width="1" />
<line x1="280" y1="0" x2="280" y2="400" stroke="#282830" stroke-width="1" />
<line x1="300" y1="0" x2="300" y2="400" stroke="#282830" stroke-width="1" />
<line x1="320" y1="0" x2="320" y2="400" stroke="#282830" stroke-width="1" />
<line x1="340" y1="0" x2="340" y2="400" stroke="#282830" stroke-width="1" />
<line x1="360" y1="0" x2="360" y2="400" stroke="#282830" stroke-width="1" />
<line x1="380" y1="0" x2="380" y2="400" stroke="#282830" stroke-width="1" />
<line x1="400" y1="0" x2="400" y2="400" stroke="#282830" stroke-width="1" />
<line x1="420" y1="0" x2="420" y2="400" stroke="#282830" stroke-width="1" />
<line x1="440" y1="0" x2="440" y2="400" stroke="#282830" stroke-width="1" />
<line x1="460" y1="0" x2="460" y2="400" stroke="#282830" stroke-width="1" />
<line x1="480" y1="0" x2="480" y2="400" stroke="#282830" stroke-width="1" />
<line x1="500" y1="0" x2="500" y2="400" stroke="#282830" stroke-width="1" />
<line x1="520" y1="0" x2="520" y2="400" stroke="#282830" stroke-width="1" />
<line x1="540" y1="0" x2="540" y2="400" stroke="#282830" stroke-width="1" />
<line x1="560" y1="0" x2="560" y2="400" stroke="#282830" stroke-width="1" />
<line x1="580" y1="0" x2="580" y2="400" stroke="#282830" stroke-width="1" />
<line x1="600" y1="0" x2="600" y2="400" stroke="#282830" stroke-width="1" />
<line x1="620" y1="0" x2="620" y2="400" stroke="#282830" stroke-width="1" />
<line x1="640" y1="0" x2="640" y2="400" stroke="#282830" stroke-width="1" />
<line x1="660" y1="0" x2="660" y2="400" stroke="#282830" stroke-width="1" />
<line x1="680" y1="0" x2="680" y2="400" stroke="#282830" stroke-width="1" />
<line x1="700" y1="0" x2="700" y2="400" stroke="#282830" stroke-width="1" />
<line x1="0" y1="0" x2="720" y2="0" stroke="#282830" stroke-width="1" />
<line x1="0" y1="20" x2="720" y2="20" stroke="#282830" stroke-width="1" />
<line x1="0" y1="40" x2="720" y2="40" stroke="#282830" stroke-width="1" />
<line x1="0" y1="60" x2="720" y2="60" stroke="#282830" stroke-width="1" />
<line x1="0" y1="80" x2="720" y2="80" stroke="#282830" stroke-width="1" />
<line x1="0" y1="100" x2="720" y2="100" stroke="#282830" stroke-width="1" />
<line x1="0" y1="120" x2="720" y2="120" stroke="#282830" stroke-width="1" />
<line x1="0" y1="140" x2="720" y2="140" stroke="#282830" stroke-width="1" />
<line x1="0" y1="160" x2="720" y2="160" stroke="#282830" stroke-width="1" />
<line x1="0" y1="180" x2="720" y2="180" stroke="#282830" stroke-width="1" />
<line x1="0" y1="200" x2="720" y2="200" stroke="#282830" stroke-width="1" />
<line x1="0" y1="220" x2="720" y2="220" stroke="#282830" stroke-width="1" />
<line x1="0" y1="240" x2="720" y2="240" stroke="#282830" stroke-width="1" />
<line x1="0" y1="260" x2="720" y2="260" stroke="#282830" stroke-width="1" />
<line x1="0" y1="280" x2="720" y2="280" stroke="#282830" stroke-width="1" />
<line x1="0" y1="300" x2="720" y2="300" stroke="#282830" stroke-width="1" />
<line x1="0" y1="320" x2="720" y2="320" stroke="#282830" stroke-width="1" />
<line x1="0" y1="340" x2="720" y2="340" stroke="#282830" stroke-width="1" />
<line x1="0" y1="360" x2="720" y2="360" stroke="#282830" stroke-width="1" />
<line x1="0" y1="380" x2="720" y2="380" stroke="#282830" stroke-width="1" />
<rect x="60" y="50" width="260" height="120" rx="16" fill="#596aff" />
<text x="90" y="80" fill="#f0f8ff" font-family="'Segoe UI', "Helvetica Neue", sans-serif" font-size="18" font-weight="500" dominant-baseline="hanging">FastAPI Gateway</text>
<text x="90" y="118" fill="#f0f8ff" font-family="'Segoe UI', "Helvetica Neue", sans-serif" font-size="18" font-weight="500" dominant-baseline="hanging">JWT + Care Flows</text>
<rect x="380" y="50" width="280" height="120" rx="16" fill="#00ba88" />
<text x="400" y="80" fill="#f0f8ff" font-family="'Segoe UI', "Helvetica Neue", sans-serif" font-size="18" font-weight="500" dominant-baseline="hanging">gRPC Care-plan</text>
<text x="400" y="118" fill="#f0f8ff" font-family="'Segoe UI', "Helvetica Neue", sans-serif" font-size="18" font-weight="500" dominant-baseline="hanging">ChatGPT / Gemini</text>
<rect x="60" y="210" width="160" height="120" rx="16" fill="#ff7043" />
<text x="80" y="240" fill="#f0f8ff" font-family="'Segoe UI', "Helvetica Neue", sans-serif" font-size="18" font-weight="500" dominant-baseline="hanging">PostgreSQL</text>
<text x="80" y="278" fill="#f0f8ff" font-family="'Segoe UI', "Helvetica Neue", sans-serif" font-size="18" font-weight="500" dominant-baseline="hanging">Patient Store</text>
<rect x="250" y="210" width="160" height="120" rx="16" fill="#ff7043" />
<text x="270" y="240" fill="#f0f8ff" font-family="'Segoe UI', "Helvetica Neue", sans-serif" font-size="18" font-weight="500" dominant-baseline="hanging">MongoDB</text>
<text x="270" y="278" fill="#f0f8ff" font-family="'Segoe UI', "Helvetica Neue", sans-serif" font-size="18" font-weight="500" dominant-baseline="hanging">Intake Audit</text>
<rect x="440" y="210" width="160" height="120" rx="16" fill="#7e57c2" />
<text x="460" y="240" fill="#f0f8ff" font-family="'Segoe UI', "Helvetica Neue", sans-serif" font-size="18" font-weight="500" dominant-baseline="hanging">Redis</text>
<text x="460" y="278" fill="#f0f8ff" font-family="'Segoe UI', "Helvetica Neue", sans-serif" font-size="18" font-weight="500" dominant-baseline="hanging">Cache + Tokens</text>
<rect x="630" y="210" width="70" height="120" rx="16" fill="#ffc74f" />
<text x="640" y="240" fill="#121214" font-family="'Segoe UI', "Helvetica Neue", sans-serif" font-size="18" font-weight="500" dominant-baseline="hanging">UI</text>
<text x="640" y="278" fill="#121214" font-family="'Segoe UI', "Helvetica Neue", sans-serif" font-size="18" font-weight="500" dominant-baseline="hanging">React</text>
<text x="140" y="185" fill="#f0f8ff" font-family="'Segoe UI', "Helvetica Neue", sans-serif" font-size="16" font-weight="500" dominant-baseline="hanging">REST / GraphQL</text>
<text x="360" y="185" fill="#f0f8ff" font-family="'Segoe UI', "Helvetica Neue", sans-serif" font-size="16" font-weight="500" dominant-baseline="hanging">Async gRPC</text>
<text x="110" y="340" fill="#f0f8ff" font-family="'Segoe UI', "Helvetica Neue", sans-serif" font-size="14" font-weight="400" dominant-baseline="hanging">Kafka · Prometheus · Grafana · Kibana</text>
</svg>